<?xml version="1.0" standalone="no"?>
<!DOCTYPE svg PUBLIC "-//W3C//DTD SVG 20010904//EN"
 "http://www.w3.org/TR/2001/REC-SVG-20010904/DTD/svg10.dtd">
<svg version="1.0" xmlns="http://www.w3.org/2000/svg"
 width="5626.000000pt" height="4501.000000pt" viewBox="0 0 5626.000000 4501.000000"
 preserveAspectRatio="xMidYMid meet">
<metadata>
Created by potrace 1.16, written by Peter Selinger 2001-2019
</metadata>
<g transform="translate(0.000000,4501.000000) scale(0.100000,-0.100000)"
fill="#000000" stroke="none">
<path d="M1914 27401 c-199 -54 -451 -232 -631 -446 -275 -326 -432 -684 -503
-1142 -64 -419 36 -1074 221 -1444 83 -166 270 -386 448 -528 427 -340 1035
-545 1856 -625 416 -41 1206 -47 1410 -11 301 53 504 179 561 349 26 77 15
186 -34 336 -87 265 -100 515 -42 797 34 161 102 335 167 421 14 18 23 36 20
39 -7 6 -287 -63 -487 -120 -85 -25 -267 -86 -405 -135 -405 -146 -532 -180
-815 -218 -177 -25 -533 -24 -695 0 -606 91 -1057 382 -1280 826 -143 285
-186 646 -115 971 39 179 150 461 230 582 117 179 316 302 431 268 85 -25 50
21 -51 67 -74 35 -187 40 -286 13z"/>
<path d="M11474 27411 c-70 -18 -168 -80 -153 -96 3 -2 24 1 47 7 116 29 316
-98 430 -273 82 -127 190 -406 235 -609 28 -128 30 -420 4 -555 -61 -311 -191
-552 -410 -762 -417 -398 -1087 -555 -1832 -428 -190 33 -344 77 -643 184
-139 50 -313 109 -385 131 -125 38 -517 140 -538 140 -6 0 4 -21 22 -46 46
-67 104 -197 133 -297 49 -170 60 -250 61 -442 0 -202 -18 -326 -65 -455 -91
-248 -75 -378 63 -507 105 -98 251 -162 453 -199 87 -16 160 -18 589 -18 485
-1 610 5 930 40 982 108 1674 421 2069 937 184 240 289 553 352 1047 21 164
24 219 19 350 -14 353 -88 655 -235 955 -200 410 -535 747 -861 866 -89 32
-222 47 -285 30z"/>
<path d="M6565 25335 c-395 -64 -692 -259 -850 -558 -112 -212 -134 -393 -90
-726 62 -467 70 -984 20 -1150 -20 -65 -85 -134 -212 -227 -462 -339 -747
-799 -838 -1354 -29 -182 -37 -369 -25 -630 24 -530 99 -1187 240 -2103 66
-423 71 -451 102 -547 45 -141 124 -248 186 -251 107 -6 163 16 195 75 l22 41
6 1255 c5 1227 6 1257 27 1366 58 303 181 555 369 754 95 101 168 158 278 216
234 125 500 184 830 184 334 0 620 -63 863 -190 266 -139 463 -404 548 -738
52 -204 54 -253 54 -1220 1 -1301 12 -1546 72 -1654 59 -106 187 -124 267 -40
81 86 118 216 176 612 156 1074 237 1914 239 2455 1 322 -10 427 -65 647 -111
440 -373 822 -741 1079 -130 91 -223 181 -256 248 l-27 56 1 315 c1 247 7 386
28 645 31 366 34 510 17 600 -85 424 -404 719 -894 826 -124 27 -414 35 -542
14z m444 -236 c273 -63 517 -271 620 -531 34 -85 56 -166 47 -175 -10 -10
-180 -40 -336 -60 -206 -26 -762 -26 -970 0 -140 18 -380 60 -419 75 -19 7
-18 10 9 94 143 446 593 702 1049 597z m141 -1010 c210 -11 506 -42 517 -53
12 -12 -48 -173 -95 -254 -60 -104 -219 -261 -322 -319 -368 -206 -810 -138
-1096 170 -38 41 -84 99 -102 130 -39 65 -97 198 -107 244 -8 38 -14 36 210
58 338 34 675 42 995 24z"/>
<path d="M4740 22983 c-92 -7 -338 -45 -440 -68 -310 -70 -633 -199 -914 -365
-103 -61 -124 -87 -106 -130 15 -37 18 -37 200 -44 377 -15 741 -119 1073
-310 l77 -44 39 81 c148 309 386 587 684 800 91 65 95 61 -83 77 -106 9 -423
11 -530 3z"/>
<path d="M8313 22976 c-62 -7 -115 -15 -118 -18 -3 -3 26 -26 64 -51 163 -108
345 -283 479 -459 81 -106 191 -285 224 -365 12 -29 26 -53 31 -53 5 0 53 25
108 55 324 182 740 295 1087 295 108 0 134 7 153 41 20 39 -5 70 -104 129
-406 241 -856 386 -1332 430 -144 13 -450 11 -592 -4z"/>
<path d="M6403 21140 c-210 -22 -369 -92 -512 -225 -124 -116 -201 -254 -235
-418 -14 -65 -16 -173 -16 -727 0 -357 2 -650 4 -650 3 0 65 -11 140 -25 159
-29 300 -78 400 -136 77 -46 183 -145 210 -197 l17 -32 -386 0 -385 0 0 -474
c0 -443 1 -475 18 -480 9 -3 73 -14 142 -25 196 -32 330 -77 434 -146 55 -36
176 -157 176 -175 0 -6 -145 -10 -386 -10 l-386 0 4 -277 c4 -245 7 -288 26
-358 89 -327 332 -529 715 -592 132 -22 657 -25 816 -5 332 43 565 194 686
447 71 148 95 300 95 613 l0 172 -390 0 -391 0 12 23 c7 12 42 52 78 88 113
113 315 195 566 229 44 6 90 13 103 16 l22 4 0 475 0 475 -391 0 -390 0 18 31
c32 56 139 153 214 196 98 56 230 99 381 123 68 11 134 23 147 26 l23 5 -5
657 c-6 724 -6 732 -71 882 -105 246 -312 414 -586 475 -61 14 -145 17 -455
20 -209 2 -417 0 -462 -5z m524 -455 c121 -20 237 -57 351 -112 62 -30 92 -50
92 -62 0 -41 -55 -204 -100 -296 -80 -164 -218 -325 -384 -450 l-76 -58 -43
29 c-23 16 -92 79 -152 139 -113 113 -206 238 -270 364 -36 73 -105 252 -105
274 0 16 134 78 250 117 74 26 270 68 315 69 17 1 71 -6 122 -14z m-46 -1552
c14 -9 31 -23 36 -33 11 -16 6 -605 -15 -1721 -7 -361 -8 -388 -26 -408 -32
-35 -103 -24 -126 19 -6 11 -18 303 -30 732 -11 392 -25 861 -31 1041 -11 322
-11 329 8 349 46 45 126 55 184 21z"/>
<path d="M44199 20830 l-166 -5 39 -140 c112 -406 113 -545 9 -962 l-49 -193
5934 0 5934 0 0 648 0 649 -242 6 c-284 8 -11215 5 -11459 -3z"/>
<path d="M19660 20756 c-165 -43 -310 -151 -389 -290 -55 -95 -74 -170 -74
-286 0 -169 52 -291 177 -415 118 -116 261 -175 426 -175 178 0 308 56 435
184 56 56 91 101 113 147 109 226 71 474 -100 654 -74 78 -146 126 -246 162
-84 32 -256 41 -342 19z m273 -249 c78 -35 141 -97 180 -176 28 -58 32 -75 32
-151 0 -71 -4 -94 -27 -142 -35 -76 -107 -151 -177 -185 -48 -24 -68 -28 -141
-28 -79 0 -90 3 -150 36 -278 153 -246 554 53 661 69 25 156 19 230 -15z"/>
<path d="M23450 20755 c-223 -61 -392 -229 -446 -445 -22 -86 -14 -231 16
-317 64 -183 234 -337 426 -387 78 -20 222 -21 299 -1 209 53 387 227 440 431
19 75 19 213 0 288 -49 187 -198 347 -385 413 -94 33 -263 42 -350 18z m285
-249 c71 -35 136 -101 172 -174 25 -50 28 -68 28 -152 0 -82 -4 -103 -27 -152
-34 -73 -103 -142 -176 -176 -82 -39 -194 -39 -273 1 -70 34 -142 109 -177
185 -23 48 -27 71 -27 142 0 71 4 94 26 141 88 187 285 267 454 185z"/>
<path d="M27370 20756 c-170 -44 -312 -152 -395 -300 -50 -91 -69 -166 -69
-276 0 -166 51 -287 174 -411 120 -120 261 -179 430 -179 104 0 190 20 273 61
67 34 179 117 175 130 -2 5 -43 44 -92 88 l-90 79 -43 -38 c-74 -65 -125 -84
-223 -85 -78 0 -90 3 -148 34 -219 119 -261 402 -86 578 129 129 325 133 461
9 l40 -36 92 82 92 82 -36 36 c-46 47 -128 96 -213 127 -84 32 -256 41 -342
19z"/>
<path d="M31115 20755 c-108 -28 -203 -82 -285 -165 -123 -122 -174 -244 -174
-410 0 -166 51 -287 174 -411 120 -120 261 -179 430 -179 106 0 190 20 278 64
66 34 167 110 167 127 0 5 -40 44 -89 88 l-90 79 -43 -38 c-74 -65 -125 -84
-223 -85 -74 0 -92 4 -138 28 -74 39 -124 87 -160 154 -78 148 -54 312 64 430
129 129 325 133 461 9 l40 -36 92 82 92 82 -36 36 c-46 47 -128 96 -213 127
-86 32 -255 41 -347 18z"/>
<path d="M36890 20754 c-220 -58 -392 -228 -446 -444 -22 -86 -14 -231 16
-317 64 -183 234 -337 426 -387 78 -20 222 -21 299 -1 84 21 193 78 251 130
l49 45 -90 84 -89 84 -53 -43 c-147 -120 -331 -110 -457 25 -73 78 -101 147
-101 250 0 71 4 94 27 142 35 76 104 148 175 184 50 24 70 29 138 29 95 0 150
-21 219 -85 l46 -42 89 78 c49 44 90 85 90 91 1 19 -105 100 -175 133 -120 58
-292 76 -414 44z"/>
<path d="M17090 20180 l0 -570 125 0 125 0 2 340 3 341 170 -310 c93 -170 173
-307 176 -305 4 2 81 139 171 304 l163 299 3 -334 2 -335 130 0 130 0 0 570 0
570 -129 0 -129 0 -168 -310 c-93 -170 -172 -310 -175 -310 -4 0 -82 139 -175
310 l-169 310 -127 0 -128 0 0 -570z"/>
<path d="M21250 20635 l0 -115 175 0 175 0 0 -455 0 -455 130 0 130 0 0 455 0
455 175 0 175 0 0 115 0 115 -480 0 -480 0 0 -115z"/>
<path d="M25100 20181 l0 -571 125 0 125 0 0 185 0 186 87 -3 87 -3 129 -182
128 -183 145 0 c79 0 144 2 144 4 0 3 -61 91 -136 196 -74 106 -134 193 -132
195 2 1 27 15 56 30 154 83 227 269 173 441 -37 120 -115 200 -239 248 -53 20
-78 21 -374 24 l-318 3 0 -570z m567 324 c60 -18 109 -67 119 -120 9 -52 -29
-123 -81 -149 -34 -18 -62 -21 -197 -24 l-158 -3 0 155 0 156 133 0 c90 0 150
-5 184 -15z"/>
<path d="M28720 20745 c0 -3 99 -167 220 -364 l220 -359 0 -206 0 -206 130 0
130 0 0 204 0 204 216 353 c119 195 219 360 221 367 4 10 -25 12 -138 10
l-144 -3 -140 -237 c-77 -131 -142 -238 -145 -238 -3 0 -66 108 -140 240
l-135 240 -147 0 c-82 0 -148 -2 -148 -5z"/>
<path d="M32570 20180 l0 -570 410 0 410 0 0 115 0 115 -285 0 -285 0 0 455 0
455 -125 0 -125 0 0 -570z"/>
<path d="M34260 20180 l0 -570 440 0 440 0 0 115 0 115 -315 0 -315 0 0 120 0
120 285 0 285 0 0 115 0 115 -285 0 -285 0 0 105 0 105 315 0 315 0 0 115 0
115 -440 0 -440 0 0 -570z"/>
<path d="M38340 20180 l0 -570 410 0 410 0 0 115 0 115 -280 0 -280 0 0 455 0
455 -130 0 -130 0 0 -570z"/>
<path d="M40032 20373 c4 -356 5 -382 26 -444 72 -218 250 -339 497 -339 235
0 409 117 487 326 21 56 22 76 26 447 l3 387 -125 0 -126 0 0 -318 c0 -410
-10 -464 -98 -544 -108 -98 -271 -88 -365 23 -65 75 -67 92 -67 486 l0 353
-131 0 -130 0 3 -377z"/>
<path d="M42020 20181 l0 -571 345 0 c323 0 350 1 407 21 119 40 196 119 218
225 25 120 -26 247 -128 315 -26 18 -49 34 -51 35 -2 2 16 22 42 44 66 58 92
117 91 210 0 124 -53 202 -174 259 l-55 26 -347 3 -348 3 0 -570z m617 321
c17 -12 37 -38 43 -57 10 -30 9 -41 -7 -72 -32 -66 -66 -77 -245 -82 l-158 -3
0 122 0 121 168 -3 c155 -3 169 -5 199 -26z m46 -445 c51 -39 66 -92 41 -143
-11 -21 -34 -49 -53 -61 -32 -22 -44 -23 -217 -23 l-184 0 0 131 0 130 188 -3
189 -3 36 -28z"/>
</g>
</svg>
